<svg width="112" height="103" viewBox="0 0 112 103" fill="none" xmlns="http://www.w3.org/2000/svg">
<path d="M10.6562 103C7.67839 103 5.1579 101.97 3.09474 99.91C1.03158 97.85 0 95.3334 0 92.3601V31.2399C0 28.2666 1.03158 25.75 3.09474 23.69C5.1579 21.63 7.67839 20.6 10.6562 20.6H35.3684V10.6399C35.3684 7.66663 36.4 5.15 38.4632 3.09C40.5263 1.03 43.0468 0 46.0246 0H65.9754C68.9532 0 71.4737 1.03 73.5368 3.09C75.6 5.15 76.6316 7.66663 76.6316 10.6399V20.6H101.344C104.322 20.6 106.842 21.63 108.905 23.69C110.968 25.75 112 28.2666 112 31.2399V92.3601C112 95.3334 110.968 97.85 108.905 99.91C106.842 101.97 104.322 103 101.344 103H10.6562ZM44.2105 20.6H67.7895V10.6399C67.7895 10.1867 67.6004 9.77175 67.2221 9.39507C66.8448 9.0174 66.4293 8.82857 65.9754 8.82857H46.0246C45.5707 8.82857 45.1552 9.0174 44.7779 9.39507C44.3997 9.77175 44.2105 10.1867 44.2105 10.6399V20.6ZM103.158 69.1571H70.7368V79.4571H41.2632V69.1571H8.8421V92.3601C8.8421 92.8133 9.03123 93.2282 9.40948 93.6049C9.78674 93.9826 10.2023 94.1714 10.6562 94.1714H101.344C101.798 94.1714 102.213 93.9826 102.591 93.6049C102.969 93.2282 103.158 92.8133 103.158 92.3601V69.1571ZM50.1053 70.6286H61.8947V58.8571H50.1053V70.6286ZM8.8421 60.3286H41.2632V50.0286H70.7368V60.3286H103.158V31.2399C103.158 30.7867 102.969 30.3718 102.591 29.9951C102.213 29.6174 101.798 29.4286 101.344 29.4286H10.6562C10.2023 29.4286 9.78674 29.6174 9.40948 29.9951C9.03123 30.3718 8.8421 30.7867 8.8421 31.2399V60.3286Z" fill="#9D6F55" fill-opacity="0.05"/>
</svg>
