<svg width="150" height="102" viewBox="0 0 150 102" fill="none" xmlns="http://www.w3.org/2000/svg">
<path d="M14.368 101.793L0.508911 91.3988H149.34L135.483 101.793H14.368ZM8.41666 84.9583C9.25091 83.3466 10.3332 81.8328 11.6636 80.417C12.9939 79.0011 14.5227 77.6831 16.25 76.4631V31.5193H8.41666V24.5149H16.25V19.5432H8.41666V12.5387H16.25V7.56697H8.41666V0.5625H60.0873C63.9805 0.5625 67.3135 1.60237 70.0865 3.68212C72.8595 5.76187 74.246 8.26218 74.246 11.183V12.5387H141.583V19.5432H74.246V20.8812C74.246 23.8226 72.8595 26.3312 70.0865 28.4071C67.3135 30.4819 63.9805 31.5193 60.0873 31.5193H45.1726V69.5042C47.6036 69.7744 49.9967 70.2092 52.3519 70.8084C54.7071 71.4077 56.8939 72.2683 58.9123 73.3905C61.2518 67.2521 65.8409 62.3073 72.6794 58.5561C79.5192 54.8049 87.2174 52.9293 95.774 52.9293C106.275 52.9293 115.229 55.6289 122.636 61.028C130.045 66.4271 133.75 73.0331 133.75 80.8458V84.9583H8.41666ZM70.5115 76.1473H120.314C118.947 71.9438 115.996 68.4922 111.462 65.7926C106.928 63.0921 101.699 61.7418 95.774 61.7418C89.6875 61.7418 84.2969 63.0617 79.6021 65.7016C74.9073 68.3414 71.8771 71.8233 70.5115 76.1473ZM45.1726 12.5387H62.498V9.375C62.498 8.84821 62.2715 8.41493 61.8185 8.07516C61.3667 7.73637 60.7897 7.56697 60.0873 7.56697H45.1726V12.5387ZM45.1726 24.5149H60.0873C60.7897 24.5149 61.3667 24.3455 61.8185 24.0067C62.2715 23.6669 62.498 23.2336 62.498 22.7068V19.5432H45.1726V24.5149ZM25.5893 12.5387H35.8333V7.56697H25.5893V12.5387ZM25.5893 24.5149H35.8333V19.5432H25.5893V24.5149ZM25.5893 71.5942C27.2473 70.9538 28.9093 70.4642 30.5752 70.1254C32.2424 69.7857 33.9951 69.512 35.8333 69.3044V31.5193H25.5893V71.5942Z" fill="#9D6F55" fill-opacity="0.05"/>
</svg>
