<svg width="114" height="116" viewBox="0 0 114 116" fill="none" xmlns="http://www.w3.org/2000/svg">
<path d="M105.037 42.0313L98.7769 35.6788L102.465 31.7839C102.85 31.3936 103.042 30.9546 103.042 30.4669C103.042 29.9792 102.85 29.5407 102.465 29.1514L85.3586 11.791C84.975 11.4007 84.5429 11.2055 84.0623 11.2055C83.5818 11.2055 83.1492 11.4007 82.7646 11.791L78.9267 15.5338L72.5173 9.0292L76.4361 4.90014C78.4651 2.84093 80.9668 1.83667 83.941 1.88737C86.9151 1.93806 89.4168 2.99301 91.4459 5.05222L109.105 22.9737C111.134 25.0329 112.149 27.5464 112.149 30.514C112.149 33.4817 111.134 35.9951 109.105 38.0543L105.037 42.0313ZM37.428 110.796C35.3989 112.855 32.9222 113.885 29.998 113.885C27.0737 113.885 24.5971 112.855 22.568 110.796L5.1395 93.107C3.07146 91.0092 2.03744 88.4182 2.03744 85.334C2.03744 82.2497 3.07146 79.6582 5.1395 77.5595L8.82751 73.8167L15.2369 80.3213L11.456 84.0641C11.0714 84.4544 10.8791 84.8934 10.8791 85.3811C10.8791 85.8688 11.0714 86.3073 11.456 86.6966L28.6553 104.151C29.0389 104.542 29.471 104.737 29.9515 104.737C30.4321 104.737 30.8647 104.542 31.2493 104.151L34.9373 100.314L41.3468 106.819L37.428 110.796ZM96.3447 64.5518L104.022 56.7606C104.407 56.3702 104.599 55.9216 104.599 55.4146C104.599 54.9077 104.407 54.459 104.022 54.0687L60.8058 10.2109C60.4212 9.82055 59.9791 9.62537 59.4796 9.62537C58.9801 9.62537 58.538 9.82055 58.1533 10.2109L50.4761 18.0021C50.0925 18.3925 49.9007 18.831 49.9007 19.3176C49.9007 19.8053 50.0925 20.2443 50.4761 20.6347L93.7507 64.5518C94.1353 64.9411 94.5679 65.1358 95.0484 65.1358C95.528 65.1358 95.9601 64.9411 96.3447 64.5518ZM55.7107 105.789L63.3879 97.9037C63.7715 97.5143 63.9634 97.0758 63.9634 96.5881C63.9634 96.1005 63.7715 95.662 63.3879 95.2726L20.2047 51.4483C19.8211 51.059 19.389 50.8643 18.9085 50.8643C18.4279 50.8643 17.9958 51.059 17.6122 51.4483L9.84205 59.2395C9.45742 59.6299 9.2651 60.0785 9.2651 60.5855C9.2651 61.0924 9.45742 61.541 9.84205 61.9314L53.0582 105.789C53.4428 106.18 53.8849 106.375 54.3844 106.375C54.8839 106.375 55.326 106.18 55.7107 105.789ZM53.1391 71.9567L70.7774 54.1508L60.7249 43.9491L43.1795 61.8493L53.1391 71.9567ZM62.0617 112.2C59.9946 114.298 57.4355 115.348 54.3844 115.348C51.3333 115.348 48.7742 114.298 46.7072 112.2L3.52553 68.3767C1.45748 66.279 0.423462 63.6819 0.423462 60.5855C0.423462 57.489 1.45748 54.892 3.52553 52.7942L11.2028 44.9437C13.2698 42.846 15.8229 41.7971 18.862 41.7971C21.9021 41.7971 24.4557 42.846 26.5228 44.9437L36.7701 55.3447L54.4084 37.446L44.1596 27.1393C42.0925 25.0416 41.059 22.4343 41.059 19.3176C41.059 16.202 42.0925 13.5952 44.1596 11.4975L51.8953 3.64849C53.9623 1.54974 56.5154 0.500366 59.5545 0.500366C62.5937 0.500366 65.1467 1.54974 67.2138 3.64849L110.488 47.5656C112.556 49.6633 113.59 52.2543 113.59 55.3386C113.59 58.4228 112.556 61.0138 110.488 63.1116L102.754 70.9621C100.687 73.0598 98.1185 74.1087 95.0484 74.1087C91.9774 74.1087 89.4083 73.0598 87.3412 70.9621L77.1853 60.5611L59.5485 78.4613L69.7973 88.8608C71.8644 90.9585 72.8979 93.55 72.8979 96.6353C72.8979 99.7195 71.8644 102.311 69.7973 104.408L62.0617 112.2Z" fill="#9D6F55" fill-opacity="0.05"/>
</svg>
