<svg width="144" height="146" viewBox="0 0 144 146" fill="none" xmlns="http://www.w3.org/2000/svg">
<mask id="mask0_351_57" style="mask-type:alpha" maskUnits="userSpaceOnUse" x="0" y="0" width="144" height="146">
<rect width="143.864" height="146" fill="#D9D9D9"/>
</mask>
<g mask="url(#mask0_351_57)">
<path d="M38.9631 124.708V21.2916H77.9263C87.0327 21.2916 94.8043 24.5574 101.241 31.0888C107.677 37.6213 110.895 45.5084 110.895 54.75C110.895 63.9916 107.677 71.8786 101.241 78.4111C94.8043 84.9426 87.0327 88.2083 77.9263 88.2083H56.9461V124.708H38.9631ZM56.9461 69.9583H78.6636C82.7847 69.9583 86.3128 68.4694 89.2481 65.4916C92.1823 62.5128 93.6494 58.9322 93.6494 54.75C93.6494 50.5677 92.1823 46.9871 89.2481 44.0083C86.3128 41.0305 82.7847 39.5416 78.6636 39.5416H56.9461V69.9583Z" fill="#9D6F55" fill-opacity="0.05"/>
</g>
</svg>
